<svg xmlns="http://www.w3.org/2000/svg" width="1000" height="1000" viewBox="0 0 1000 1000" role="img" data-glidearr-template="6">
  <title>Glidearr - Tonight </title>
  <desc>Glidearr playlist poster, tonight, 1000x1000. GENERATED by poster_templates.py - do not hand-edit.</desc>
  <defs>
    <radialGradient id="ground" cx="50%" cy="36%" r="78%">
      <stop offset="0" stop-color="#1b2949"/><stop offset="1" stop-color="#0B1322"/>
    </radialGradient>
  </defs>
  <rect width="1000" height="1000" fill="url(#ground)"/>
  <g stroke="#f472b6" fill="none" stroke-width="1">
    <path d="M-40 640 Q 420 430 1040 610" opacity="0.16"/>
    <path d="M-40 700 Q 420 490 1040 670" opacity="0.09"/>
  </g>
  <g opacity="0.35" transform="translate(300,505) rotate(-6) scale(1.25) translate(-45,-35)"><polygon points="90,35 4,6 38,35" fill="#8fa2bd"/><polygon points="90,35 38,35 4,64" fill="#4b5a75"/></g><g transform="translate(560,470) rotate(-6) scale(2.3) translate(-45,-35)"><polygon points="90,35 4,6 38,35" fill="#F1F6FC"/><polygon points="90,35 38,35 4,64" fill="#f472b6"/></g>
  <g transform="translate(80,86) scale(0.30)"><polygon points="90,35 4,6 38,35" fill="#f472b6"/><polygon points="90,35 38,35 4,64" fill="#0B1322"/></g>
  <text x="122" y="104" font-family="'Lora', Georgia, 'Times New Roman', serif" font-size="15" letter-spacing="4.2"
        fill="#F1F6FC" fill-opacity="0.62">GLIDEARR</text>
  <text x="920" y="104" text-anchor="end" font-family="'Lora', Georgia, 'Times New Roman', serif" font-size="15"
        letter-spacing="4.2" fill="#f472b6" fill-opacity="0.75">09 - TONIGHT</text>
  <text x="80" y="760" font-family="'Cormorant Garamond', Garamond, Georgia, serif" font-weight="300" font-size="96"
        fill="#F1F6FC" letter-spacing="-1.4">Tonight</text>
  <text x="920" y="760" text-anchor="end" font-family="'Lora', Georgia, 'Times New Roman', serif" font-size="44" letter-spacing="2.2" fill="#f472b6" fill-opacity="0.92">{{DAY}} {{DATE}}</text>
  <line x1="80" y1="898" x2="920" y2="898" stroke="#f472b6" stroke-opacity="0.30" stroke-width="1"/>
  <text x="80" y="940" font-family="'Lora', Georgia, 'Times New Roman', serif" font-style="italic" font-size="26" fill="#E2E8F6" fill-opacity="0.80">{{COUNT}} picked for tonight - <tspan fill="#f472b6" fill-opacity="1">{{GENRE_1}}</tspan> <tspan fill-opacity="0.5">·</tspan> <tspan fill-opacity="0.80">{{GENRE_2}}</tspan></text>
</svg>
