<svg xmlns="http://www.w3.org/2000/svg" width="1000" height="1500" viewBox="0 0 1000 1500" role="img" data-glidearr-template="6">
  <title>Glidearr - Touch &amp; Go</title>
  <desc>Glidearr collection poster, touch_and_go, 1000x1500. GENERATED by poster_templates.py - do not hand-edit.</desc>
  <defs>
    <radialGradient id="ground" cx="50%" cy="36%" r="78%">
      <stop offset="0" stop-color="#1b2949"/><stop offset="1" stop-color="#0B1322"/>
    </radialGradient>
  </defs>
  <rect width="1000" height="1500" fill="url(#ground)"/>
  <g stroke="#fbbf24" fill="none" stroke-width="1">
    <path d="M-40 640 Q 420 430 1040 610" opacity="0.16"/>
    <path d="M-40 700 Q 420 490 1040 670" opacity="0.09"/>
  </g>
  <g transform="translate(0,210)"><g transform="translate(520,430) rotate(-18) scale(2.6) translate(-45,-35)"><polygon points="90,35 4,6 38,35" fill="#F1F6FC"/><polygon points="90,35 38,35 4,64" fill="#fbbf24"/></g></g>
  <g transform="translate(80,92) scale(0.30)"><polygon points="90,35 4,6 38,35" fill="#fbbf24"/><polygon points="90,35 38,35 4,64" fill="#0B1322"/></g>
  <text x="122" y="110" font-family="'Lora', Georgia, 'Times New Roman', serif" font-size="15" letter-spacing="4.2"
        fill="#F1F6FC" fill-opacity="0.62">GLIDEARR</text>
  <text x="920" y="110" text-anchor="end" font-family="'Lora', Georgia, 'Times New Roman', serif" font-size="15"
        letter-spacing="4.2" fill="#fbbf24" fill-opacity="0.75">03 - STANDALONE</text>
  <text x="80" y="1150" font-family="'Cormorant Garamond', Garamond, Georgia, serif" font-weight="300" font-size="112"
        fill="#F1F6FC" letter-spacing="-1.4">Touch</text>
  <text x="80" y="1250" font-family="'Cormorant Garamond', Garamond, Georgia, serif" font-weight="300" font-size="112" fill="#F1F6FC" letter-spacing="-1.4">&amp; Go</text>
  <line x1="80" y1="1296" x2="920" y2="1296" stroke="#fbbf24" stroke-opacity="0.30" stroke-width="1"/>
  <text x="80" y="1342" font-family="'Lora', Georgia, 'Times New Roman', serif" font-style="italic" font-size="26" fill="#E2E8F6" fill-opacity="0.80">one-offs in <tspan fill="#fbbf24" fill-opacity="1">{{GENRE_1}}</tspan> <tspan fill-opacity="0.5">·</tspan> <tspan fill-opacity="0.80">{{GENRE_2}}</tspan> <tspan fill-opacity="0.5">·</tspan> <tspan fill-opacity="0.62">{{GENRE_3}}</tspan></text>
</svg>
